<mxfile host="app.diagrams.net" agent="Mozilla/5.0 (X11; Ubuntu; Linux x86_64; rv:130.0) Gecko/20100101 Firefox/130.0" version="24.7.12">
  <diagram name="Page-1" id="HZ-h86I9RY2YUOU27bAz">
    <mxGraphModel dx="1950" dy="1789" grid="1" gridSize="10" guides="1" tooltips="1" connect="1" arrows="1" fold="1" page="1" pageScale="1" pageWidth="827" pageHeight="1169" math="0" shadow="0">
      <root>
        <mxCell id="0" />
        <mxCell id="1" parent="0" />
        <mxCell id="alZMGK_V_BP7ghE9R9m_-2" value="" style="swimlane;startSize=0;" vertex="1" parent="1">
          <mxGeometry x="-10" y="-350" width="420" height="590" as="geometry" />
        </mxCell>
        <mxCell id="alZMGK_V_BP7ghE9R9m_-8" value="Paraémetrer l&#39;application" style="ellipse;whiteSpace=wrap;html=1;" vertex="1" parent="alZMGK_V_BP7ghE9R9m_-2">
          <mxGeometry x="70" y="50" width="100" height="70" as="geometry" />
        </mxCell>
        <mxCell id="alZMGK_V_BP7ghE9R9m_-29" value="Gérer les villes " style="ellipse;whiteSpace=wrap;html=1;" vertex="1" parent="alZMGK_V_BP7ghE9R9m_-2">
          <mxGeometry x="120" y="120" width="90" height="50" as="geometry" />
        </mxCell>
        <mxCell id="alZMGK_V_BP7ghE9R9m_-36" value="Appli Météo" style="text;html=1;align=center;verticalAlign=middle;whiteSpace=wrap;rounded=0;" vertex="1" parent="alZMGK_V_BP7ghE9R9m_-2">
          <mxGeometry x="180" width="80" height="30" as="geometry" />
        </mxCell>
        <mxCell id="alZMGK_V_BP7ghE9R9m_-40" value="Suprrimer" style="ellipse;whiteSpace=wrap;html=1;" vertex="1" parent="alZMGK_V_BP7ghE9R9m_-2">
          <mxGeometry x="260" y="150" width="70" height="40" as="geometry" />
        </mxCell>
        <mxCell id="alZMGK_V_BP7ghE9R9m_-41" value="Ajouter" style="ellipse;whiteSpace=wrap;html=1;" vertex="1" parent="alZMGK_V_BP7ghE9R9m_-2">
          <mxGeometry x="90" y="190" width="70" height="40" as="geometry" />
        </mxCell>
        <mxCell id="alZMGK_V_BP7ghE9R9m_-42" value="Signaler un problème" style="ellipse;whiteSpace=wrap;html=1;" vertex="1" parent="alZMGK_V_BP7ghE9R9m_-2">
          <mxGeometry x="160" y="230" width="90" height="60" as="geometry" />
        </mxCell>
        <mxCell id="alZMGK_V_BP7ghE9R9m_-51" value="Actuelle" style="ellipse;whiteSpace=wrap;html=1;" vertex="1" parent="alZMGK_V_BP7ghE9R9m_-2">
          <mxGeometry x="70" y="400" width="60" height="70" as="geometry" />
        </mxCell>
        <mxCell id="alZMGK_V_BP7ghE9R9m_-52" value="24h" style="ellipse;whiteSpace=wrap;html=1;" vertex="1" parent="alZMGK_V_BP7ghE9R9m_-2">
          <mxGeometry x="150" y="430" width="70" height="30" as="geometry" />
        </mxCell>
        <mxCell id="alZMGK_V_BP7ghE9R9m_-53" value="10 jours" style="ellipse;whiteSpace=wrap;html=1;" vertex="1" parent="alZMGK_V_BP7ghE9R9m_-2">
          <mxGeometry x="230" y="400" width="90" height="60" as="geometry" />
        </mxCell>
        <mxCell id="alZMGK_V_BP7ghE9R9m_-58" value="Rafraichir les données" style="ellipse;whiteSpace=wrap;html=1;" vertex="1" parent="alZMGK_V_BP7ghE9R9m_-2">
          <mxGeometry x="130" y="490" width="90" height="60" as="geometry" />
        </mxCell>
        <mxCell id="alZMGK_V_BP7ghE9R9m_-47" value="Consulter Météo" style="ellipse;whiteSpace=wrap;html=1;" vertex="1" parent="alZMGK_V_BP7ghE9R9m_-2">
          <mxGeometry x="125" y="330" width="120" height="80" as="geometry" />
        </mxCell>
        <mxCell id="alZMGK_V_BP7ghE9R9m_-9" value="" style="endArrow=none;html=1;rounded=0;entryX=0;entryY=0.5;entryDx=0;entryDy=0;" edge="1" parent="1" target="alZMGK_V_BP7ghE9R9m_-8">
          <mxGeometry width="50" height="50" relative="1" as="geometry">
            <mxPoint x="-30" y="-60" as="sourcePoint" />
            <mxPoint x="120" y="-70" as="targetPoint" />
          </mxGeometry>
        </mxCell>
        <mxCell id="alZMGK_V_BP7ghE9R9m_-17" value="Visiteur" style="shape=umlActor;verticalLabelPosition=bottom;verticalAlign=top;html=1;outlineConnect=0;" vertex="1" parent="1">
          <mxGeometry x="-80" y="-50" width="30" height="60" as="geometry" />
        </mxCell>
        <mxCell id="alZMGK_V_BP7ghE9R9m_-28" value="" style="endArrow=none;html=1;rounded=0;entryX=0;entryY=0.5;entryDx=0;entryDy=0;" edge="1" parent="1" target="alZMGK_V_BP7ghE9R9m_-29">
          <mxGeometry width="50" height="50" relative="1" as="geometry">
            <mxPoint x="-20" y="-40" as="sourcePoint" />
            <mxPoint x="90" y="-185" as="targetPoint" />
            <Array as="points">
              <mxPoint x="30" y="-110" />
            </Array>
          </mxGeometry>
        </mxCell>
        <mxCell id="alZMGK_V_BP7ghE9R9m_-38" value="" style="endArrow=block;endSize=16;endFill=0;html=1;rounded=0;exitX=0.5;exitY=1;exitDx=0;exitDy=0;" edge="1" parent="1" source="alZMGK_V_BP7ghE9R9m_-29">
          <mxGeometry x="1" y="-198" width="160" relative="1" as="geometry">
            <mxPoint x="180" y="-180" as="sourcePoint" />
            <mxPoint x="240" y="-160" as="targetPoint" />
            <mxPoint x="150" y="-68" as="offset" />
          </mxGeometry>
        </mxCell>
        <mxCell id="alZMGK_V_BP7ghE9R9m_-39" value="" style="endArrow=block;endSize=16;endFill=0;html=1;rounded=0;exitX=0.5;exitY=1;exitDx=0;exitDy=0;" edge="1" parent="1" source="alZMGK_V_BP7ghE9R9m_-29">
          <mxGeometry width="160" relative="1" as="geometry">
            <mxPoint x="180" y="-180" as="sourcePoint" />
            <mxPoint x="80" y="-150" as="targetPoint" />
          </mxGeometry>
        </mxCell>
        <mxCell id="alZMGK_V_BP7ghE9R9m_-43" value="GPS du smartphone" style="shape=umlActor;verticalLabelPosition=bottom;verticalAlign=top;html=1;outlineConnect=0;" vertex="1" parent="1">
          <mxGeometry x="470" y="-210" width="30" height="60" as="geometry" />
        </mxCell>
        <mxCell id="alZMGK_V_BP7ghE9R9m_-44" value="" style="endArrow=none;html=1;rounded=0;exitX=1;exitY=0.5;exitDx=0;exitDy=0;" edge="1" parent="1" source="alZMGK_V_BP7ghE9R9m_-29">
          <mxGeometry width="50" height="50" relative="1" as="geometry">
            <mxPoint x="350" y="-120" as="sourcePoint" />
            <mxPoint x="440" y="-170" as="targetPoint" />
          </mxGeometry>
        </mxCell>
        <mxCell id="alZMGK_V_BP7ghE9R9m_-45" value="" style="endArrow=none;html=1;rounded=0;entryX=0;entryY=0.5;entryDx=0;entryDy=0;" edge="1" parent="1" target="alZMGK_V_BP7ghE9R9m_-42">
          <mxGeometry width="50" height="50" relative="1" as="geometry">
            <mxPoint x="-30" y="-10" as="sourcePoint" />
            <mxPoint x="400" as="targetPoint" />
          </mxGeometry>
        </mxCell>
        <mxCell id="alZMGK_V_BP7ghE9R9m_-46" value="Serveur Météo" style="shape=umlActor;verticalLabelPosition=bottom;verticalAlign=top;html=1;outlineConnect=0;" vertex="1" parent="1">
          <mxGeometry x="440" y="20" width="30" height="60" as="geometry" />
        </mxCell>
        <mxCell id="alZMGK_V_BP7ghE9R9m_-48" value="" style="endArrow=none;html=1;rounded=0;entryX=0;entryY=0;entryDx=0;entryDy=0;" edge="1" parent="1" target="alZMGK_V_BP7ghE9R9m_-47">
          <mxGeometry width="50" height="50" relative="1" as="geometry">
            <mxPoint x="-40" y="10" as="sourcePoint" />
            <mxPoint x="200" y="10" as="targetPoint" />
          </mxGeometry>
        </mxCell>
        <mxCell id="alZMGK_V_BP7ghE9R9m_-50" value="" style="endArrow=classic;html=1;rounded=0;exitX=1;exitY=0.5;exitDx=0;exitDy=0;" edge="1" parent="1" source="alZMGK_V_BP7ghE9R9m_-47">
          <mxGeometry width="50" height="50" relative="1" as="geometry">
            <mxPoint x="120" y="60" as="sourcePoint" />
            <mxPoint x="420" y="50" as="targetPoint" />
          </mxGeometry>
        </mxCell>
        <mxCell id="alZMGK_V_BP7ghE9R9m_-54" value="Système" style="shape=umlActor;verticalLabelPosition=bottom;verticalAlign=top;html=1;outlineConnect=0;" vertex="1" parent="1">
          <mxGeometry x="-90" y="90" width="30" height="60" as="geometry" />
        </mxCell>
        <mxCell id="alZMGK_V_BP7ghE9R9m_-59" value="" style="endArrow=none;html=1;rounded=0;entryX=0;entryY=0.5;entryDx=0;entryDy=0;" edge="1" parent="1" target="alZMGK_V_BP7ghE9R9m_-58">
          <mxGeometry width="50" height="50" relative="1" as="geometry">
            <mxPoint x="-30" y="30" as="sourcePoint" />
            <mxPoint x="90" y="40" as="targetPoint" />
          </mxGeometry>
        </mxCell>
        <mxCell id="alZMGK_V_BP7ghE9R9m_-61" value="" style="endArrow=none;html=1;rounded=0;entryX=0;entryY=1;entryDx=0;entryDy=0;" edge="1" parent="1" target="alZMGK_V_BP7ghE9R9m_-58">
          <mxGeometry width="50" height="50" relative="1" as="geometry">
            <mxPoint x="-40" y="140" as="sourcePoint" />
            <mxPoint x="90" y="40" as="targetPoint" />
          </mxGeometry>
        </mxCell>
        <mxCell id="alZMGK_V_BP7ghE9R9m_-62" value="" style="endArrow=none;html=1;rounded=0;exitX=1;exitY=0.5;exitDx=0;exitDy=0;entryX=0;entryY=1;entryDx=0;entryDy=0;entryPerimeter=0;" edge="1" parent="1" source="alZMGK_V_BP7ghE9R9m_-58" target="alZMGK_V_BP7ghE9R9m_-46">
          <mxGeometry width="50" height="50" relative="1" as="geometry">
            <mxPoint x="-80" as="sourcePoint" />
            <mxPoint x="-30" y="-50" as="targetPoint" />
          </mxGeometry>
        </mxCell>
      </root>
    </mxGraphModel>
  </diagram>
</mxfile>
